<?xml version="1.0"?>
<svg version="1.1" xmlns="http://www.w3.org/2000/svg" width="400px" height="200px" style="border: dashed 2px #aaa"><path fill="#" d="M78.496,105.876l-0.104,1.664q0,3.38,3.64,3.38q3.016,0,6.084-2.08t3.068-4.212t-2.496-3.588q-1.664-0.988-5.2-0.988q-5.252,0-11.726,2.496t-12.142,8.008q-7.436,7.28-7.436,13.364q0,3.588,2.73,5.772t7.15,2.184q6.136,0,14.248-4.628q6.76-3.796,10.14-8.06l1.508-2.236q-0.936,0-7.748,0.546t-7.8,0.78t-1.612,0.234q-1.716,0-1.716-0.832q0-1.3,3.952-2.158t13.364-0.858t12.428,0.728q0.468,0.104,0.468,0.26q0,0.572-3.588,0.832q-4.472,0.364-4.576,0.364q-5.304,6.968-13.728,21.528q-0.468,0.832-0.91,0.832t-0.442-0.676q0-1.82,2.912-7.02l3.64-6.812q-3.328,2.86-8.476,5.356q-6.708,3.172-12.662,3.172t-9.1-2.574t-3.146-6.89q0-7.956,9.62-16.172q4.836-4.16,11.7-6.916t12.038-2.756t7.93,2.028q2.132,1.664,2.132,3.744q0,2.964-3.666,5.694t-7.254,2.73q-4.836,0-4.836-5.564q0-2.132,0.884-2.132q0.728,0,0.728,1.456z M108.11884,110.478q0.702,0.494,0.702,1.17t-0.65,1.17t-1.43,0.494t-1.43-0.572t-0.65-1.3q0-1.456,1.976-1.456q0.78,0,1.482,0.494z M97.22484,131.772q-2.652,0-2.652-3.432q0-2.808,3.068-7.774t4.94-5.018q0.52,0,1.17,0.416t0.65,0.832q-0.26,0.364-0.624,0.806t-0.78,0.962t-1.144,1.482t-1.404,1.846q-3.9,5.044-3.9,6.942t1.3,1.898q1.092,0,2.964-1.196q4.368-2.704,6.916-5.928q0.936-1.196,1.274-1.196t0.338,0.416t-1.196,1.664t-1.898,1.976t-0.962,0.962t-0.962,0.884t-1.066,0.91t-1.04,0.78t-1.196,0.754t-1.196,0.546q-1.092,0.468-2.6,0.468z M126.76968,115.34l0.728-0.156q0.676,0,1.066,0.416t0.39,0.65t-0.052,0.52t-1.508,2.626q-1.82,3.172-3.016,5.356q-4.212,7.852-6.448,10.764q-4.784,6.344-9.1,6.344q-1.508,0-2.626-1.274t-1.17-2.834q0.156-0.624,0.468-0.624q0.156,0,0.26,0.364q0.26,1.352,0.988,2.08t1.456,0.728q2.964,0,6.344-3.9q2.236-2.6,4.94-7.592l2.6-5.148l-3.9,3.952q-3.744,3.588-5.122,3.588t-2.626-0.936q-1.404-1.04-1.404-2.756q0-3.796,5.33-9.048t9.698-5.252q1.768,0,2.288,1.144q0.156,0.416,0.26,0.702t0.156,0.286z M111.22168,128.132q0,1.872,1.3,1.872q3.016,0,8.216-6.604l5.512-7.592q-0.312-0.728-1.3-0.728q-3.224,0-8.476,4.966t-5.252,8.086z M148.20252,115.652l0.728-0.156q0.572,0,1.092,0.468t0.52,0.728t-3.224,5.018t-3.224,6.63q0,0.156,0.052,0.312q0.26,1.196,1.144,1.196q2.704,0,9.88-8.944q0.156-0.208,0.364-0.208t0.208,0.39t-0.468,1.014q-6.656,8.892-10.14,8.892q-0.468,0-0.884-0.156q-2.288-0.884-2.288-3.432q0-0.884,0.208-1.768l-3.224,3.12q-3.068,2.704-4.446,2.704t-2.626-0.884q-1.404-1.04-1.404-2.756q0-3.796,5.304-9.074t9.724-5.278q1.716,0,2.288,1.196q0.156,0.416,0.26,0.702t0.156,0.286z M132.65452,128.444q0,1.872,1.3,1.872q3.016,0,8.216-6.604l5.512-7.592q-0.416-0.728-1.352-0.728q-3.172,0-8.424,4.914t-5.252,8.138z M163.03136,114.768q1.404,0,1.404,1.092q0,0.312-0.156,0.624q-4.68,6.5-5.616,9.828q12.116-12.116,14.716-12.116q0.26-0.052,0.468-0.052q1.456,0,1.456,1.3q0,0.26-0.104,0.52t-2.08,2.808q-2.288,2.704-3.874,5.2t-1.586,4.16t0.728,1.664q2.288,0,7.956-6.292q0.104-0.104,0.364-0.468q0.78-0.936,0.936-0.936t0.156,0.52t-0.728,1.352q-6.448,7.332-9.152,7.332q-2.548,0-2.548-2.808t2.08-6.448l3.328-5.408q-3.536,2.6-6.292,5.694t-5.018,6.006t-2.626,2.912q-0.78,0-1.222-0.65t-0.442-1.612t0.676-2.574t1.716-3.9l-3.12,3.276q-1.144,1.144-1.43,1.144t-0.286-0.338t0.416-0.754q1.924-1.924,3.328-3.692q1.352-1.768,5.564-6.76q0.468-0.624,0.988-0.624z M191.4842,114.456l7.488-0.104q0.156,0.104,0.156,0.156q0,0.468-6.474,1.3t-6.994,0.988q-0.988,0.884-3.64,5.278t-2.652,6.422q0,1.924,2.652,1.924q1.248,0,3.276-0.78t3.12-1.456q2.912-1.82,6.24-5.356q0.728-0.728,0.988-0.728q0.156,0,0.156,0.312t-0.78,1.248q-2.704,3.328-6.084,5.356q-4.056,2.496-7.748,2.496q-1.612,0-2.626-0.702t-1.014-2.834t1.872-5.85t2.86-5.538q-0.728,0.156-1.248,0.156q-1.508,0-1.508-1.196q0-0.884,1.248-1.248q0.156,0,0.468-0.052l3.016,0q0.936-1.196,2.132-2.756q1.456-1.872,1.976-1.872t1.3,0.416t0.78,0.988t-2.496,3.38q1.352,0.052,3.536,0.052z M208.41904,110.478q0.702,0.494,0.702,1.17t-0.65,1.17t-1.43,0.494t-1.43-0.572t-0.65-1.3q0-1.456,1.976-1.456q0.78,0,1.482,0.494z M197.52504,131.772q-2.652,0-2.652-3.432q0-2.808,3.068-7.774t4.94-5.018q0.52,0,1.17,0.416t0.65,0.832q-0.26,0.364-0.624,0.806t-0.78,0.962t-1.144,1.482t-1.404,1.846q-3.9,5.044-3.9,6.942t1.3,1.898q1.092,0,2.964-1.196q4.368-2.704,6.916-5.928q0.936-1.196,1.274-1.196t0.338,0.416t-1.196,1.664t-1.898,1.976t-0.962,0.962t-0.962,0.884t-1.066,0.91t-1.04,0.78t-1.196,0.754t-1.196,0.546q-1.092,0.468-2.6,0.468z M213.65388,131.876q-0.572,0-1.04-0.156q-3.328-0.936-3.328-3.744q0-3.64,4.576-8.424t8.216-4.784q1.196,0,1.95,0.65t0.754,1.768t-0.676,2.34t-2.028,1.222t-1.352-0.832q0-0.572,0.702-1.742t0.702-1.248t-0.156-0.078q-1.456,0.156-3.978,2.08t-3.458,3.224l-2.028,2.964q-0.52,0.832-0.754,1.976t-0.234,1.716t0.65,1.3t1.846,0.728q2.6,0,6.448-3.042t5.928-5.798q0.26-0.312,0.624-0.312t0.364,0.208t-0.26,0.52q-2.86,3.796-6.838,6.63t-6.63,2.834z M232.17472,117.68l5.044,0.052q3.016,0,4.316-0.156q0.052,0.052,0.052,0.156q0,0.78-4.108,1.508q-2.236,0.312-4.186,0.65t-2.496,0.338t-1.82-0.234t-1.274-1.014q0-0.52,0.442-0.884t0.754-0.364t0.624-0.052l1.352,0l1.3,0z M255.06356,131.46q-3.9,0-3.9-4.316q0-2.184,1.144-4.784t2.496-4.368q-0.26,0.052-0.676,0.052q-1.248,0-2.08-1.768l-3.848,4.992q-3.224,4.004-3.744,4.004q-0.26,0-0.26-0.208q0-0.52,0.884-1.508q4.524-5.252,6.396-8.892q1.196-4.524,3.016-4.524q1.196,0,1.196,1.04t-1.3,2.652l-1.248,1.664q0,1.092,1.612,1.092q0.936,0,2.08-0.676l1.352-0.832q0.104-0.052,0.52-0.052t0.884,0.52t0.312,0.936l-3.588,4.524q-3.328,4.264-3.328,6.734t2.288,2.47q2.392,0,5.876-2.548q2.08-1.508,3.796-3.38q1.612-1.872,1.768-1.872q0.364,0,0.364,0.39t-0.468,0.91l-1.664,1.872q-1.404,1.456-3.12,2.808q-4.108,3.068-6.76,3.068z M269.8924,131.876q-0.572,0-1.04-0.156q-3.328-0.936-3.328-3.744q0-3.64,4.576-8.424t8.216-4.784q1.196,0,1.95,0.65t0.754,1.586q0,2.912-4.394,5.564t-7.15,2.652q-0.416,0-0.728-0.104q-0.78,1.404-0.78,2.964q0,2.704,2.574,2.704t6.682-3.484q3.172-2.548,5.408-5.408q0.468-0.624,0.806-0.624t0.338,0.312t-0.416,0.884q-2.808,3.692-6.76,6.552t-6.708,2.86z M279.7204,116.9q0-0.624-1.326-0.624t-3.77,2.028q-3.276,2.704-5.096,5.668q0.312,0.104,0.676,0.104q1.976,0,5.278-2.106t4.134-4.602q0.104-0.26,0.104-0.468z M296.47324,114.456l7.488-0.104q0.156,0.104,0.156,0.156q0,0.468-6.474,1.3t-6.994,0.988q-0.988,0.884-3.64,5.278t-2.652,6.422q0,1.924,2.652,1.924q1.248,0,3.276-0.78t3.12-1.456q2.912-1.82,6.24-5.356q0.728-0.728,0.988-0.728q0.156,0,0.156,0.312t-0.78,1.248q-2.704,3.328-6.084,5.356q-4.056,2.496-7.748,2.496q-1.612,0-2.626-0.702t-1.014-2.834t1.872-5.85t2.86-5.538q-0.728,0.156-1.248,0.156q-1.508,0-1.508-1.196q0-0.884,1.248-1.248q0.156,0,0.468-0.052l3.016,0q0.936-1.196,2.132-2.756q1.456-1.872,1.976-1.872t1.3,0.416t0.78,0.988t-2.496,3.38q1.352,0.052,3.536,0.052z M317.90608,115.652l0.728-0.156q0.572,0,1.092,0.468t0.52,0.728t-3.224,5.018t-3.224,6.63q0,0.156,0.052,0.312q0.26,1.196,1.144,1.196q2.704,0,9.88-8.944q0.156-0.208,0.364-0.208t0.208,0.39t-0.468,1.014q-6.656,8.892-10.14,8.892q-0.468,0-0.884-0.156q-2.288-0.884-2.288-3.432q0-0.884,0.208-1.768l-3.224,3.12q-3.068,2.704-4.446,2.704t-2.626-0.884q-1.404-1.04-1.404-2.756q0-3.796,5.304-9.074t9.724-5.278q1.716,0,2.288,1.196q0.156,0.416,0.26,0.702t0.156,0.286z M302.35808,128.444q0,1.872,1.3,1.872q3.016,0,8.216-6.604l5.512-7.592q-0.416-0.728-1.352-0.728q-3.172,0-8.424,4.914t-5.252,8.138z M337.12892,110.478q0.702,0.494,0.702,1.17t-0.65,1.17t-1.43,0.494t-1.43-0.572t-0.65-1.3q0-1.456,1.976-1.456q0.78,0,1.482,0.494z M326.23492,131.772q-2.652,0-2.652-3.432q0-2.808,3.068-7.774t4.94-5.018q0.52,0,1.17,0.416t0.65,0.832q-0.26,0.364-0.624,0.806t-0.78,0.962t-1.144,1.482t-1.404,1.846q-3.9,5.044-3.9,6.942t1.3,1.898q1.092,0,2.964-1.196q4.368-2.704,6.916-5.928q0.936-1.196,1.274-1.196t0.338,0.416t-1.196,1.664t-1.898,1.976t-0.962,0.962t-0.962,0.884t-1.066,0.91t-1.04,0.78t-1.196,0.754t-1.196,0.546q-1.092,0.468-2.6,0.468z M342.15576,130.16q1.716,0,4.42-1.82t5.252-4.94q0.624-0.832,0.988-0.832t0.364,0.312t-2.132,2.704q-5.2,5.72-8.684,5.72q-1.716,0-2.912-0.806t-1.196-2.496t0.884-3.926q1.508-3.536,4.836-8.892q6.084-9.88,8.632-9.88q0.52,0,1.066,0.39t0.598,0.858q-1.196,1.612-4.602,6.188t-4.706,6.578t-1.95,2.99t-0.962,1.534t-0.728,1.43q-0.884,1.768-0.884,3.328t1.716,1.56z"/><path fill="#" d=""/></svg>
